<svg xmlns="http://www.w3.org/2000/svg" viewBox="0 0 1120 770" width="1120" height="770" font-family="-apple-system,BlinkMacSystemFont,'Segoe UI',Roboto,Helvetica,Arial,sans-serif" role="img" aria-label="Fleet Manager system architecture">
<title>Fleet Manager system architecture</title>
<desc>Clients (browser, mobile app, Shelly devices, and the Wall Display) reach Fleet Manager through the Traefik TLS edge; internal traffic is plaintext behind it. A person signs in through Zitadel's Login UI, which the edge routes at /ui/v2/login; the Login UI calls the Zitadel API, which persists to its own database. Fleet Manager verifies tokens against the Zitadel API over internal HTTP, stores data in TimescaleDB, uses Redis for cache and coordination, and delivers notifications through FCM push and other channels. Ports sit on the listening service; the wire carries the protocol.</desc>
<rect width="1120" height="770" fill="#ffffff"/>
<defs><marker id="ah" viewBox="0 0 10 10" refX="8.5" refY="5" markerWidth="6.5" markerHeight="6.5" orient="auto-start-reverse"><path d="M0,0 L10,5 L0,10 z" fill="#7C8A9C"/></marker></defs>
<text x="40" y="40" font-size="17" font-weight="700" fill="#122A4F">Fleet Manager architecture at a glance</text>
<text x="40" y="61" font-size="12" fill="#6B7A90">Ports on the service that listens; protocols on the wire. Internal traffic is plaintext behind the TLS edge.</text><rect x="530" y="115" width="535" height="495" rx="12" fill="#F4F8FC" stroke="#9DB8D2" stroke-width="1.5" stroke-dasharray="7 5"/><text x="544" y="135" font-size="11" font-weight="600" letter-spacing="0.06em" fill="#5E7A99">INTERNAL NETWORK behind the TLS edge</text><rect x="40" y="100" width="190" height="500" rx="12" fill="none" stroke="#CBD5E1" stroke-width="1.25" stroke-dasharray="5 4"/><text x="54" y="120" font-size="10.5" font-weight="400" letter-spacing="0.06em" fill="#9AA8BA">CLIENTS public</text><rect x="665" y="150" width="385" height="140" rx="12" fill="none" stroke="#CBD5E1" stroke-width="1.25" stroke-dasharray="5 4"/><text x="679" y="170" font-size="10.5" font-weight="400" letter-spacing="0.06em" fill="#9AA8BA">ZITADEL identity</text><rect x="770" y="340" width="215" height="255" rx="12" fill="none" stroke="#CBD5E1" stroke-width="1.25" stroke-dasharray="5 4"/><text x="784" y="360" font-size="10.5" font-weight="400" letter-spacing="0.06em" fill="#9AA8BA">DATA STORES</text><rect x="385" y="620" width="320" height="130" rx="12" fill="none" stroke="#CBD5E1" stroke-width="1.25" stroke-dasharray="5 4"/><text x="399" y="640" font-size="10.5" font-weight="400" letter-spacing="0.06em" fill="#9AA8BA">NOTIFICATIONS external</text><text x="350" y="298" text-anchor="middle" font-size="10.5" letter-spacing="0.05em" fill="#9AA8BA">TLS EDGE</text><path d="M165,170 L280,170" fill="none" stroke="#7C8A9C" stroke-width="1.6"/><path d="M165,290 L280,290" fill="none" stroke="#7C8A9C" stroke-width="1.6"/><path d="M165,410 L280,410" fill="none" stroke="#7C8A9C" stroke-width="1.6"/><path d="M165,530 L280,530" fill="none" stroke="#C6851B" stroke-width="1.6" stroke-dasharray="5 4"/><path d="M280,170 L280,530" fill="none" stroke="#7C8A9C" stroke-width="1.6"/><path d="M280,340 L320,340" fill="none" stroke="#7C8A9C" stroke-width="1.6" marker-end="url(#ah)"/><path d="M380,330 L580,330" fill="none" stroke="#7C8A9C" stroke-width="1.6" marker-end="url(#ah)"/><path d="M380,322 L450,322 L450,205 L700,205" fill="none" stroke="#6D5AE6" stroke-width="1.6" marker-end="url(#ah)"/><path d="M640,314 L830,314 L830,235" fill="none" stroke="#6D5AE6" stroke-width="1.6" marker-end="url(#ah)"/><path d="M760,205 L825,205" fill="none" stroke="#6D5AE6" stroke-width="1.6" marker-end="url(#ah)"/><path d="M885,205 L950,205" fill="none" stroke="#6D5AE6" stroke-width="1.6" marker-end="url(#ah)"/><path d="M640,336 L750,336 L750,400 L840,400" fill="none" stroke="#4F5D95" stroke-width="1.6" marker-end="url(#ah)"/><path d="M640,356 L730,356 L730,520 L840,520" fill="none" stroke="#4F5D95" stroke-width="1.6" marker-end="url(#ah)"/><path d="M585,360 L545,360 L545,620" fill="none" stroke="#2E9E6B" stroke-width="1.6" marker-end="url(#ah)"/><rect x="174.55" y="140" width="60.9" height="20" rx="10" fill="#ffffff" stroke="#D3DDEA" stroke-width="1"/><text x="205" y="154" text-anchor="middle" font-size="12" font-weight="600" fill="#33445A">wss · /</text><rect x="174.55" y="260" width="60.9" height="20" rx="10" fill="#ffffff" stroke="#D3DDEA" stroke-width="1"/><text x="205" y="274" text-anchor="middle" font-size="12" font-weight="600" fill="#33445A">wss · /</text><rect x="171.45" y="380" width="101.10000000000001" height="20" rx="10" fill="#ffffff" stroke="#D3DDEA" stroke-width="1"/><text x="222" y="394" text-anchor="middle" font-size="12" font-weight="600" fill="#33445A">wss · /shelly</text><rect x="190.8" y="500" width="94.4" height="20" rx="10" fill="#ffffff" stroke="#D3DDEA" stroke-width="1"/><text x="238" y="514" text-anchor="middle" font-size="12" font-weight="600" fill="#C6851B">ws · /shelly</text><rect x="459.6" y="304" width="40.8" height="20" rx="10" fill="#ffffff" stroke="#D3DDEA" stroke-width="1"/><text x="480" y="318" text-anchor="middle" font-size="12" font-weight="600" fill="#33445A">http</text><rect x="714.6" y="304" width="40.8" height="20" rx="10" fill="#ffffff" stroke="#D3DDEA" stroke-width="1"/><text x="735" y="318" text-anchor="middle" font-size="12" font-weight="600" fill="#6D5AE6">http</text><rect x="552.8" y="195" width="94.4" height="20" rx="10" fill="#ffffff" stroke="#D3DDEA" stroke-width="1"/><text x="600" y="209" text-anchor="middle" font-size="12" font-weight="600" fill="#6D5AE6">/ui/v2/login</text><rect x="709.5" y="375" width="81" height="20" rx="10" fill="#ffffff" stroke="#D3DDEA" stroke-width="1"/><text x="750" y="389" text-anchor="middle" font-size="12" font-weight="600" fill="#4F5D95">PostgreSQL</text><rect x="709.6" y="445" width="40.8" height="20" rx="10" fill="#ffffff" stroke="#D3DDEA" stroke-width="1"/><text x="730" y="459" text-anchor="middle" font-size="12" font-weight="600" fill="#4F5D95">RESP</text><rect x="497.8" y="480" width="94.4" height="20" rx="10" fill="#ffffff" stroke="#D3DDEA" stroke-width="1"/><text x="545" y="494" text-anchor="middle" font-size="12" font-weight="600" fill="#2E9E6B">HTTPS · SMTP</text><defs><linearGradient id="l135_170" x1="0" y1="0" x2="0" y2="1"><stop offset="0" stop-color="#5B6B82"/><stop offset="1" stop-color="#4d5b6f"/></linearGradient></defs><rect x="105" y="140" width="60" height="60" rx="14" fill="url(#l135_170)"/><g transform="translate(123,158)" stroke="#fff" stroke-width="2" fill="none" stroke-linecap="round" stroke-linejoin="round"><rect x="2" y="3" width="20" height="14" rx="1.6"/><path d="M8 21h8M12 17v4"/></g><text x="135" y="218" text-anchor="middle" font-size="13" font-weight="600" fill="#25324A">Browser app</text><defs><linearGradient id="l135_290" x1="0" y1="0" x2="0" y2="1"><stop offset="0" stop-color="#5B6B82"/><stop offset="1" stop-color="#4d5b6f"/></linearGradient></defs><rect x="105" y="260" width="60" height="60" rx="14" fill="url(#l135_290)"/><g transform="translate(123,278)" stroke="#fff" stroke-width="2" fill="none" stroke-linecap="round" stroke-linejoin="round"><rect x="6" y="2" width="12" height="20" rx="2.2"/><path d="M10 18.5h4"/></g><text x="135" y="338" text-anchor="middle" font-size="13" font-weight="600" fill="#25324A">Mobile app</text><defs><linearGradient id="l135_410" x1="0" y1="0" x2="0" y2="1"><stop offset="0" stop-color="#5B6B82"/><stop offset="1" stop-color="#4d5b6f"/></linearGradient></defs><rect x="105" y="380" width="60" height="60" rx="14" fill="url(#l135_410)"/><g transform="translate(123,398)" stroke="#fff" stroke-width="2" fill="none" stroke-linecap="round" stroke-linejoin="round"><rect x="5" y="5" width="14" height="14" rx="1.6"/><rect x="9" y="9" width="6" height="6" rx="1"/><path d="M9 2v3M15 2v3M9 19v3M15 19v3M2 9h3M2 15h3M19 9h3M19 15h3"/></g><text x="135" y="458" text-anchor="middle" font-size="13" font-weight="600" fill="#25324A">Shelly devices</text><defs><linearGradient id="l135_530" x1="0" y1="0" x2="0" y2="1"><stop offset="0" stop-color="#C6851B"/><stop offset="1" stop-color="#a87117"/></linearGradient></defs><rect x="105" y="500" width="60" height="60" rx="14" fill="url(#l135_530)"/><g transform="translate(123,518)" stroke="#fff" stroke-width="2" fill="none" stroke-linecap="round" stroke-linejoin="round"><rect x="2" y="3" width="20" height="16" rx="1.8"/><path d="M6 22h12"/><circle cx="12" cy="11" r="2.4"/></g><text x="135" y="578" text-anchor="middle" font-size="13" font-weight="600" fill="#25324A">Wall Display</text><defs><linearGradient id="l350_340" x1="0" y1="0" x2="0" y2="1"><stop offset="0" stop-color="#12909F"/><stop offset="1" stop-color="#0f7a87"/></linearGradient></defs><rect x="320" y="310" width="60" height="60" rx="14" fill="url(#l350_340)"/><g transform="translate(338,328)" stroke="#fff" stroke-width="2" fill="none" stroke-linecap="round" stroke-linejoin="round"><path d="M12 2l8 3.5v5.5c0 5-3.4 8.3-8 10-4.6-1.7-8-5-8-10V5.5z"/></g><text x="350" y="388" text-anchor="middle" font-size="13" font-weight="600" fill="#25324A">Traefik</text><text x="350" y="404" text-anchor="middle" font-size="11" font-family="ui-monospace,Menlo,monospace" fill="#7C8A9C">:80 · :443</text><defs><linearGradient id="l610_330" x1="0" y1="0" x2="0" y2="1"><stop offset="0" stop-color="#2F6FB0"/><stop offset="1" stop-color="#285e96"/></linearGradient></defs><rect x="580" y="300" width="60" height="60" rx="14" fill="url(#l610_330)"/><g transform="translate(598,318)" stroke="#fff" stroke-width="2" fill="none" stroke-linecap="round" stroke-linejoin="round"><path d="M2 12h4.5l3-8 5 16 3-8H21"/></g><text x="610" y="378" text-anchor="middle" font-size="13" font-weight="600" fill="#25324A">Fleet Manager</text><text x="610" y="394" text-anchor="middle" font-size="11" font-family="ui-monospace,Menlo,monospace" fill="#7C8A9C">:7011</text><defs><linearGradient id="l730_205" x1="0" y1="0" x2="0" y2="1"><stop offset="0" stop-color="#6D5AE6"/><stop offset="1" stop-color="#5d4dc4"/></linearGradient></defs><rect x="700" y="175" width="60" height="60" rx="14" fill="url(#l730_205)"/><g transform="translate(718,193)" stroke="#fff" stroke-width="2" fill="none" stroke-linecap="round" stroke-linejoin="round"><rect x="2" y="4" width="20" height="16" rx="2"/><path d="M2 9h20M6 6.5h.01M9 6.5h.01"/></g><text x="730" y="253" text-anchor="middle" font-size="13" font-weight="600" fill="#25324A">Login UI</text><text x="730" y="269" text-anchor="middle" font-size="11" font-family="ui-monospace,Menlo,monospace" fill="#7C8A9C">:3000</text><defs><linearGradient id="l855_205" x1="0" y1="0" x2="0" y2="1"><stop offset="0" stop-color="#6D5AE6"/><stop offset="1" stop-color="#5d4dc4"/></linearGradient></defs><rect x="825" y="175" width="60" height="60" rx="14" fill="url(#l855_205)"/><g transform="translate(843,193)" stroke="#fff" stroke-width="2" fill="none" stroke-linecap="round" stroke-linejoin="round"><circle cx="8" cy="12" r="4"/><path d="M12 12h10M18.5 12v3.4M15.5 12v2.4"/></g><text x="855" y="253" text-anchor="middle" font-size="13" font-weight="600" fill="#25324A">API</text><text x="855" y="269" text-anchor="middle" font-size="11" font-family="ui-monospace,Menlo,monospace" fill="#7C8A9C">:8080</text><defs><linearGradient id="l980_205" x1="0" y1="0" x2="0" y2="1"><stop offset="0" stop-color="#6D5AE6"/><stop offset="1" stop-color="#5d4dc4"/></linearGradient></defs><rect x="950" y="175" width="60" height="60" rx="14" fill="url(#l980_205)"/><g transform="translate(968,193)" stroke="#fff" stroke-width="2" fill="none" stroke-linecap="round" stroke-linejoin="round"><ellipse cx="12" cy="5.5" rx="8" ry="3.2"/><path d="M4 5.5v13c0 1.8 3.6 3.2 8 3.2s8-1.4 8-3.2v-13"/><path d="M4 12c0 1.8 3.6 3.2 8 3.2s8-1.4 8-3.2"/></g><text x="980" y="253" text-anchor="middle" font-size="13" font-weight="600" fill="#25324A">Database</text><text x="980" y="269" text-anchor="middle" font-size="11" font-family="ui-monospace,Menlo,monospace" fill="#7C8A9C">:5432</text><defs><linearGradient id="l870_400" x1="0" y1="0" x2="0" y2="1"><stop offset="0" stop-color="#4F5D95"/><stop offset="1" stop-color="#434f7f"/></linearGradient></defs><rect x="840" y="370" width="60" height="60" rx="14" fill="url(#l870_400)"/><g transform="translate(858,388)" stroke="#fff" stroke-width="2" fill="none" stroke-linecap="round" stroke-linejoin="round"><ellipse cx="12" cy="5.5" rx="8" ry="3.2"/><path d="M4 5.5v13c0 1.8 3.6 3.2 8 3.2s8-1.4 8-3.2v-13"/><path d="M4 12c0 1.8 3.6 3.2 8 3.2s8-1.4 8-3.2"/></g><text x="870" y="448" text-anchor="middle" font-size="13" font-weight="600" fill="#25324A">TimescaleDB</text><text x="870" y="464" text-anchor="middle" font-size="11" font-family="ui-monospace,Menlo,monospace" fill="#7C8A9C">:5432</text><defs><linearGradient id="l870_520" x1="0" y1="0" x2="0" y2="1"><stop offset="0" stop-color="#4F5D95"/><stop offset="1" stop-color="#434f7f"/></linearGradient></defs><rect x="840" y="490" width="60" height="60" rx="14" fill="url(#l870_520)"/><g transform="translate(858,508)" stroke="#fff" stroke-width="2" fill="none" stroke-linecap="round" stroke-linejoin="round"><path d="M13 2L5 13h6l-1 9 9-12h-6z"/></g><text x="870" y="568" text-anchor="middle" font-size="13" font-weight="600" fill="#25324A">Redis</text><text x="870" y="584" text-anchor="middle" font-size="11" font-family="ui-monospace,Menlo,monospace" fill="#7C8A9C">:6379</text><defs><linearGradient id="l480_678" x1="0" y1="0" x2="0" y2="1"><stop offset="0" stop-color="#2E9E6B"/><stop offset="1" stop-color="#27865b"/></linearGradient></defs><rect x="450" y="648" width="60" height="60" rx="14" fill="url(#l480_678)"/><g transform="translate(468,666)" stroke="#fff" stroke-width="2" fill="none" stroke-linecap="round" stroke-linejoin="round"><path d="M5 9a7 7 0 0 1 14 0c0 5.2 2.2 6.5 2.2 6.5H2.8S5 14.2 5 9"/><path d="M9.5 20a2.5 2.5 0 0 0 5 0"/></g><text x="480" y="726" text-anchor="middle" font-size="13" font-weight="600" fill="#25324A">FCM push</text><defs><linearGradient id="l610_678" x1="0" y1="0" x2="0" y2="1"><stop offset="0" stop-color="#2E9E6B"/><stop offset="1" stop-color="#27865b"/></linearGradient></defs><rect x="580" y="648" width="60" height="60" rx="14" fill="url(#l610_678)"/><g transform="translate(598,666)" stroke="#fff" stroke-width="2" fill="none" stroke-linecap="round" stroke-linejoin="round"><rect x="2" y="4.5" width="20" height="15" rx="2.2"/><path d="M3 6.5l9 6.2 9-6.2"/></g><text x="610" y="726" text-anchor="middle" font-size="13" font-weight="600" fill="#25324A">Notify channels</text></svg>